<?xml version="1.0" encoding="UTF-8"?>
<svg width="256px" height="256px" viewBox="0 0 256 256" version="1.1" xmlns="http://www.w3.org/2000/svg">
    <g fill="none" stroke="none" stroke-width="1" fill-rule="evenodd">
        <circle fill="#3B82F6" cx="128" cy="128" r="128"></circle>
        <g transform="translate(54.000000, 54.000000)" fill="#FFFFFF">
            <path d="M148,64 C148,99.346224 119.346224,128 84,128 C48.653776,128 20,99.346224 20,64 C20,28.653776 48.653776,0 84,0 C119.346224,0 148,28.653776 148,64 Z M132,64 C132,37.490332 110.509668,16 84,16 C57.490332,16 36,37.490332 36,64 C36,90.509668 57.490332,112 84,112 C110.509668,112 132,90.509668 132,64 Z"></path>
            <circle cx="84" cy="64" r="24"></circle>
            <path d="M0,148 L28,148 L28,116 C28,107.163444 35.163444,100 44,100 L124,100 C132.836556,100 140,107.163444 140,116 L140,148 L168,148 L168,116 C168,91.699471 148.300529,72 124,72 L44,72 C19.699471,72 0,91.699471 0,116 L0,148 Z"></path>
        </g>
    </g>
</svg>
