
    <svg width="640" height="400" xmlns="http://www.w3.org/2000/svg">
      <defs>
        <linearGradient id="bgGrad" x1="0%" y1="0%" x2="100%" y2="100%">
          <stop offset="0%" style="stop-color:#fefce8;stop-opacity:1" />
          <stop offset="100%" style="stop-color:#fef9c3;stop-opacity:1" />
        </linearGradient>
        <filter id="shadow" x="-50%" y="-50%" width="200%" height="200%">
          <feDropShadow dx="0" dy="4" stdDeviation="8" flood-color="#0000001a" />
        </filter>
      </defs>
      
      <!-- Background -->
      <rect width="640" height="400" fill="url(#bgGrad)" rx="12" />
      
      <!-- CRM + Analytics UI -->
      <rect x="90" y="40" width="460" height="320" rx="8" fill="white" style="filter:url(#shadow)" />
      
      <!-- Dashboard Header -->
      <rect x="90" y="40" width="460" height="50" rx="8" fill="#1e293b" />
      <text x="120" y="70" font-family="Arial" font-size="16" font-weight="bold" fill="white">LeadMiner CRM - Conversion Analytics</text>
      
      <!-- Graph Section -->
      <rect x="110" y="110" width="420" height="140" rx="4" fill="#f8fafc" stroke="#e2e8f0" />
      
      <!-- Graph Title -->
      <text x="130" y="135" font-family="Arial" font-size="14" font-weight="bold" fill="#1e293b">Conversion Funnel</text>
      
      <!-- Funnel Graph -->
      <rect x="180" y="145" width="280" height="30" rx="4" fill="#93c5fd" />
      <text x="300" y="165" font-family="Arial" font-size="12" fill="#1e3a8a" text-anchor="middle">Leads Found (142)</text>
      
      <rect x="200" y="180" width="240" height="30" rx="4" fill="#818cf8" />
      <text x="300" y="200" font-family="Arial" font-size="12" fill="white" text-anchor="middle">Contacted (98)</text>
      
      <rect x="220" y="215" width="200" height="30" rx="4" fill="#8b5cf6" />
      <text x="300" y="235" font-family="Arial" font-size="12" fill="white" text-anchor="middle">Responded (63)</text>
      
      <!-- Pipeline Table -->
      <rect x="110" y="260" width="420" height="90" rx="4" fill="#f8fafc" stroke="#e2e8f0" />
      <text x="130" y="285" font-family="Arial" font-size="14" font-weight="bold" fill="#1e293b">Pipeline Status</text>
      
      <rect x="130" y="300" width="100" height="25" rx="4" fill="#dbeafe" />
      <text x="150" y="317" font-family="Arial" font-size="12" fill="#1e40af">New (25)</text>
      
      <rect x="240" y="300" width="100" height="25" rx="4" fill="#c7d2fe" />
      <text x="260" y="317" font-family="Arial" font-size="12" fill="#3730a3">In Progress (18)</text>
      
      <rect x="350" y="300" width="100" height="25" rx="4" fill="#a5b4fc" />
      <text x="370" y="317" font-family="Arial" font-size="12" fill="#312e81">Converted (12)</text>
      
      <!-- Chart icons -->
      <circle cx="40" cy="120" r="20" fill="#fef08a" />
      <circle cx="600" cy="280" r="25" fill="#fef08a" />
      <circle cx="570" cy="30" r="15" fill="#fef08a" />
    </svg>
    