
    <svg width="640" height="400" xmlns="http://www.w3.org/2000/svg">
      <defs>
        <linearGradient id="bgGrad" x1="0%" y1="0%" x2="100%" y2="100%">
          <stop offset="0%" style="stop-color:#f8fafc;stop-opacity:1" />
          <stop offset="100%" style="stop-color:#f1f5f9;stop-opacity:1" />
        </linearGradient>
        <filter id="shadow" x="-50%" y="-50%" width="200%" height="200%">
          <feDropShadow dx="0" dy="4" stdDeviation="8" flood-color="#0000001a" />
        </filter>
      </defs>
      
      <!-- Background -->
      <rect width="640" height="400" fill="url(#bgGrad)" rx="12" />
      
      <!-- Form UI -->
      <rect x="80" y="50" width="480" height="300" rx="8" fill="white" style="filter:url(#shadow)" />
      
      <!-- Form Header -->
      <rect x="80" y="50" width="480" height="60" rx="8" fill="#3b82f6" />
      <text x="120" y="87" font-family="Arial" font-size="18" font-weight="bold" fill="white">Target Criteria Setup</text>
      
      <!-- Form Elements -->
      <text x="100" y="140" font-family="Arial" font-size="14" font-weight="bold" fill="#1e293b">Business Category</text>
      <rect x="100" y="150" width="440" height="40" rx="4" fill="#f8fafc" stroke="#e2e8f0" />
      <text x="120" y="175" font-family="Arial" font-size="14" fill="#64748b">SaaS / Software Development</text>
      
      <text x="100" y="210" font-family="Arial" font-size="14" font-weight="bold" fill="#1e293b">Target Keywords</text>
      <rect x="100" y="220" width="440" height="40" rx="4" fill="#f8fafc" stroke="#e2e8f0" />
      <text x="120" y="245" font-family="Arial" font-size="14" fill="#64748b">software development, web app, MVP, startup</text>
      
      <text x="100" y="280" font-family="Arial" font-size="14" font-weight="bold" fill="#1e293b">Subreddits to Monitor</text>
      <rect x="100" y="290" width="440" height="40" rx="4" fill="#f8fafc" stroke="#e2e8f0" />
      <text x="120" y="315" font-family="Arial" font-size="14" fill="#64748b">r/startups, r/entrepreneur, r/webdev, r/SaaS</text>
      
      <!-- Gear icons to symbolize settings -->
      <circle cx="50" cy="120" r="20" fill="#dbeafe" />
      <circle cx="590" cy="280" r="25" fill="#dbeafe" />
      <circle cx="530" cy="30" r="15" fill="#dbeafe" />
    </svg>
    